<svg width="180" height="40" viewBox="0 0 180 40" fill="none" xmlns="http://www.w3.org/2000/svg">
<path d="M71.16 30L71.132 18.24L65.364 27.928H63.32L57.58 18.492V30H53.324V10.4H57.076L64.412 22.58L71.636 10.4H75.36L75.416 30H71.16ZM84.9942 14.712C87.3275 14.712 89.1195 15.272 90.3702 16.392C91.6209 17.4933 92.2462 19.164 92.2462 21.404V30H88.1582V28.124C87.3369 29.524 85.8062 30.224 83.5662 30.224C82.4089 30.224 81.4009 30.028 80.5422 29.636C79.7022 29.244 79.0582 28.7027 78.6102 28.012C78.1622 27.3213 77.9382 26.5373 77.9382 25.66C77.9382 24.26 78.4609 23.1587 79.5062 22.356C80.5702 21.5533 82.2035 21.152 84.4062 21.152H87.8782C87.8782 20.2 87.5889 19.472 87.0102 18.968C86.4315 18.4453 85.5635 18.184 84.4062 18.184C83.6035 18.184 82.8102 18.3147 82.0262 18.576C81.2609 18.8187 80.6075 19.1547 80.0662 19.584L78.4982 16.532C79.3195 15.9533 80.2995 15.5053 81.4382 15.188C82.5955 14.8707 83.7809 14.712 84.9942 14.712ZM84.6582 27.284C85.4049 27.284 86.0675 27.116 86.6462 26.78C87.2249 26.4253 87.6355 25.912 87.8782 25.24V23.7H84.8822C83.0902 23.7 82.1942 24.288 82.1942 25.464C82.1942 26.024 82.4089 26.472 82.8382 26.808C83.2862 27.1253 83.8929 27.284 84.6582 27.284ZM111.064 14.936V27.48C111.064 30.2427 110.345 32.296 108.908 33.64C107.47 34.984 105.37 35.656 102.608 35.656C101.152 35.656 99.7702 35.4787 98.4635 35.124C97.1568 34.7693 96.0742 34.256 95.2155 33.584L96.9515 30.448C97.5862 30.9707 98.3888 31.3813 99.3595 31.68C100.33 31.9973 101.301 32.156 102.272 32.156C103.784 32.156 104.894 31.8107 105.604 31.12C106.332 30.448 106.696 29.4213 106.696 28.04V27.396C105.557 28.6467 103.97 29.272 101.936 29.272C100.554 29.272 99.2848 28.9733 98.1275 28.376C96.9888 27.76 96.0835 26.9013 95.4115 25.8C94.7395 24.6987 94.4035 23.4293 94.4035 21.992C94.4035 20.5547 94.7395 19.2853 95.4115 18.184C96.0835 17.0827 96.9888 16.2333 98.1275 15.636C99.2848 15.02 100.554 14.712 101.936 14.712C104.12 14.712 105.781 15.4307 106.92 16.868V14.936H111.064ZM102.804 25.688C103.961 25.688 104.904 25.352 105.632 24.68C106.378 23.9893 106.752 23.0933 106.752 21.992C106.752 20.8907 106.378 20.004 105.632 19.332C104.904 18.6413 103.961 18.296 102.804 18.296C101.646 18.296 100.694 18.6413 99.9475 19.332C99.2008 20.004 98.8275 20.8907 98.8275 21.992C98.8275 23.0933 99.2008 23.9893 99.9475 24.68C100.694 25.352 101.646 25.688 102.804 25.688ZM123.445 14.712C125.312 14.712 126.814 15.272 127.953 16.392C129.11 17.512 129.689 19.1733 129.689 21.376V30H125.321V22.048C125.321 20.8533 125.06 19.9667 124.537 19.388C124.014 18.7907 123.258 18.492 122.269 18.492C121.168 18.492 120.29 18.8373 119.637 19.528C118.984 20.2 118.657 21.208 118.657 22.552V30H114.289V14.936H118.461V16.7C119.04 16.0653 119.758 15.58 120.617 15.244C121.476 14.8893 122.418 14.712 123.445 14.712ZM147.728 22.524C147.728 22.58 147.7 22.972 147.644 23.7H136.248C136.454 24.6333 136.939 25.3707 137.704 25.912C138.47 26.4533 139.422 26.724 140.56 26.724C141.344 26.724 142.035 26.612 142.632 26.388C143.248 26.1453 143.818 25.772 144.34 25.268L146.664 27.788C145.246 29.412 143.174 30.224 140.448 30.224C138.75 30.224 137.247 29.8973 135.94 29.244C134.634 28.572 133.626 27.648 132.916 26.472C132.207 25.296 131.852 23.9613 131.852 22.468C131.852 20.9933 132.198 19.668 132.888 18.492C133.598 17.2973 134.559 16.3733 135.772 15.72C137.004 15.048 138.376 14.712 139.888 14.712C141.363 14.712 142.698 15.0293 143.892 15.664C145.087 16.2987 146.02 17.2133 146.692 18.408C147.383 19.584 147.728 20.956 147.728 22.524ZM139.916 18.016C138.927 18.016 138.096 18.296 137.424 18.856C136.752 19.416 136.342 20.1813 136.192 21.152H143.612C143.463 20.2 143.052 19.444 142.38 18.884C141.708 18.3053 140.887 18.016 139.916 18.016ZM159.512 29.272C159.083 29.5893 158.551 29.832 157.916 30C157.3 30.1493 156.647 30.224 155.956 30.224C154.164 30.224 152.774 29.7667 151.784 28.852C150.814 27.9373 150.328 26.5933 150.328 24.82V18.632H148.004V15.272H150.328V11.604H154.696V15.272H158.448V18.632H154.696V24.764C154.696 25.3987 154.855 25.8933 155.172 26.248C155.508 26.584 155.975 26.752 156.572 26.752C157.263 26.752 157.851 26.5653 158.336 26.192L159.512 29.272ZM173.78 30L169.048 23.196L164.4 30H159.192L166.444 20.032L159.556 10.4H164.708L169.216 16.756L173.64 10.4H178.54L171.708 19.864L179.016 30H173.78Z" fill="#292930"/>
<rect width="40" height="40" rx="11.4286" fill="white"/>
<circle cx="12.8572" cy="12.8574" r="5.71429" fill="#004AFF"/>
<circle cx="12.8572" cy="27.143" r="5.71429" fill="#FFFA32"/>
<circle cx="27.1429" cy="12.8574" r="5.71429" fill="#96DDFF"/>
<circle cx="27.1429" cy="27.143" r="5.71429" fill="#004AFF"/>
</svg>
