<svg width="152" height="40" viewBox="0 0 152 40" fill="none" xmlns="http://www.w3.org/2000/svg">
<path d="M53.436 10.4H69.256V14.012H57.944V18.044H63.376C65.7467 18.044 67.548 18.5387 68.78 19.528C70.0307 20.5173 70.656 21.9453 70.656 23.812C70.656 25.772 69.9653 27.2933 68.584 28.376C67.2027 29.4587 65.252 30 62.732 30H53.436V10.4ZM62.48 26.64C63.6373 26.64 64.524 26.416 65.14 25.968C65.756 25.5013 66.064 24.8293 66.064 23.952C66.064 22.2347 64.8693 21.376 62.48 21.376H57.944V26.64H62.48ZM87.6958 14.936L80.8918 30.924C80.2011 32.66 79.3424 33.8827 78.3158 34.592C77.3078 35.3013 76.0851 35.656 74.6477 35.656C73.8637 35.656 73.0891 35.5347 72.3237 35.292C71.5584 35.0493 70.9331 34.7133 70.4477 34.284L72.0437 31.176C72.3797 31.4747 72.7624 31.708 73.1917 31.876C73.6397 32.044 74.0784 32.128 74.5078 32.128C75.1051 32.128 75.5904 31.9787 75.9638 31.68C76.3371 31.4 76.6731 30.924 76.9718 30.252L77.0278 30.112L70.5037 14.936H75.0118L79.2398 25.156L83.4958 14.936H87.6958ZM95.7208 30.224C94.1155 30.224 92.6688 29.8973 91.3808 29.244C90.1115 28.572 89.1128 27.648 88.3848 26.472C87.6755 25.296 87.3208 23.9613 87.3208 22.468C87.3208 20.9747 87.6755 19.64 88.3848 18.464C89.1128 17.288 90.1115 16.3733 91.3808 15.72C92.6688 15.048 94.1155 14.712 95.7208 14.712C97.3075 14.712 98.6888 15.048 99.8648 15.72C101.059 16.3733 101.927 17.316 102.469 18.548L99.0808 20.368C98.2968 18.9867 97.1675 18.296 95.6928 18.296C94.5541 18.296 93.6115 18.6693 92.8648 19.416C92.1181 20.1627 91.7448 21.18 91.7448 22.468C91.7448 23.756 92.1181 24.7733 92.8648 25.52C93.6115 26.2667 94.5541 26.64 95.6928 26.64C97.1861 26.64 98.3155 25.9493 99.0808 24.568L102.469 26.416C101.927 27.6107 101.059 28.544 99.8648 29.216C98.6888 29.888 97.3075 30.224 95.7208 30.224ZM116.884 18.52H111.788V30H107.448V18.52H102.352V14.936H116.884V18.52ZM132.388 22.524C132.388 22.58 132.36 22.972 132.304 23.7H120.908C121.113 24.6333 121.599 25.3707 122.364 25.912C123.129 26.4533 124.081 26.724 125.22 26.724C126.004 26.724 126.695 26.612 127.292 26.388C127.908 26.1453 128.477 25.772 129 25.268L131.324 27.788C129.905 29.412 127.833 30.224 125.108 30.224C123.409 30.224 121.907 29.8973 120.6 29.244C119.293 28.572 118.285 27.648 117.576 26.472C116.867 25.296 116.512 23.9613 116.512 22.468C116.512 20.9933 116.857 19.668 117.548 18.492C118.257 17.2973 119.219 16.3733 120.432 15.72C121.664 15.048 123.036 14.712 124.548 14.712C126.023 14.712 127.357 15.0293 128.552 15.664C129.747 16.2987 130.68 17.2133 131.352 18.408C132.043 19.584 132.388 20.956 132.388 22.524ZM124.576 18.016C123.587 18.016 122.756 18.296 122.084 18.856C121.412 19.416 121.001 20.1813 120.852 21.152H128.272C128.123 20.2 127.712 19.444 127.04 18.884C126.368 18.3053 125.547 18.016 124.576 18.016ZM143.772 14.712C145.172 14.712 146.441 15.0387 147.58 15.692C148.737 16.3267 149.643 17.232 150.296 18.408C150.949 19.5653 151.276 20.9187 151.276 22.468C151.276 24.0173 150.949 25.38 150.296 26.556C149.643 27.7133 148.737 28.6187 147.58 29.272C146.441 29.9067 145.172 30.224 143.772 30.224C141.849 30.224 140.337 29.6173 139.236 28.404V35.432H134.868V14.936H139.04V16.672C140.123 15.3653 141.7 14.712 143.772 14.712ZM143.016 26.64C144.136 26.64 145.051 26.2667 145.76 25.52C146.488 24.7547 146.852 23.7373 146.852 22.468C146.852 21.1987 146.488 20.1907 145.76 19.444C145.051 18.6787 144.136 18.296 143.016 18.296C141.896 18.296 140.972 18.6787 140.244 19.444C139.535 20.1907 139.18 21.1987 139.18 22.468C139.18 23.7373 139.535 24.7547 140.244 25.52C140.972 26.2667 141.896 26.64 143.016 26.64Z" fill="#292930"/>
<rect width="40" height="40" rx="11.4286" fill="white"/>
<circle cx="12.8571" cy="12.8574" r="5.71429" fill="#004AFF"/>
<circle cx="12.8571" cy="27.143" r="5.71429" fill="#FFFA32"/>
<circle cx="27.1428" cy="12.8574" r="5.71429" fill="#96DDFF"/>
<circle cx="27.1428" cy="27.143" r="5.71429" fill="#004AFF"/>
</svg>
