<svg width="178" height="40" viewBox="0 0 178 40" fill="none" xmlns="http://www.w3.org/2000/svg">
<path d="M71.636 30L71.608 17.008L65.168 27.76H63.544L57.104 17.176V30H53.632V10.4H56.628L64.412 23.392L72.056 10.4H75.052L75.08 30H71.636ZM84.9102 14.88C87.1129 14.88 88.7929 15.412 89.9502 16.476C91.1262 17.5213 91.7142 19.108 91.7142 21.236V30H88.4102V28.18C87.9809 28.8333 87.3649 29.3373 86.5622 29.692C85.7782 30.028 84.8262 30.196 83.7062 30.196C82.5862 30.196 81.6062 30.0093 80.7662 29.636C79.9262 29.244 79.2729 28.712 78.8062 28.04C78.3582 27.3493 78.1342 26.5747 78.1342 25.716C78.1342 24.372 78.6289 23.2987 79.6182 22.496C80.6262 21.6747 82.2035 21.264 84.3502 21.264H88.2142V21.04C88.2142 19.9947 87.8969 19.192 87.2622 18.632C86.6462 18.072 85.7222 17.792 84.4902 17.792C83.6502 17.792 82.8195 17.9227 81.9982 18.184C81.1955 18.4453 80.5142 18.8093 79.9542 19.276L78.5822 16.728C79.3662 16.1307 80.3089 15.6733 81.4102 15.356C82.5115 15.0387 83.6782 14.88 84.9102 14.88ZM84.4342 27.648C85.3115 27.648 86.0862 27.452 86.7582 27.06C87.4489 26.6493 87.9342 26.0707 88.2142 25.324V23.588H84.6022C82.5862 23.588 81.5782 24.2507 81.5782 25.576C81.5782 26.2107 81.8302 26.7147 82.3342 27.088C82.8382 27.4613 83.5382 27.648 84.4342 27.648ZM110.343 15.048V27.732C110.343 32.996 107.655 35.628 102.279 35.628C100.841 35.628 99.4787 35.4413 98.1907 35.068C96.9027 34.7133 95.8387 34.1907 94.9987 33.5L96.5667 30.868C97.2201 31.4093 98.0414 31.8387 99.0307 32.156C100.039 32.492 101.056 32.66 102.083 32.66C103.725 32.66 104.929 32.2867 105.695 31.54C106.46 30.7933 106.843 29.6547 106.843 28.124V27.34C106.245 27.9933 105.517 28.488 104.659 28.824C103.8 29.16 102.857 29.328 101.831 29.328C100.412 29.328 99.1241 29.0293 97.9667 28.432C96.8281 27.816 95.9227 26.9573 95.2507 25.856C94.5974 24.7547 94.2707 23.4947 94.2707 22.076C94.2707 20.6573 94.5974 19.4067 95.2507 18.324C95.9227 17.2227 96.8281 16.3733 97.9667 15.776C99.1241 15.1787 100.412 14.88 101.831 14.88C102.913 14.88 103.893 15.0573 104.771 15.412C105.667 15.7667 106.413 16.308 107.011 17.036V15.048H110.343ZM102.363 26.36C103.688 26.36 104.771 25.968 105.611 25.184C106.469 24.3813 106.899 23.3453 106.899 22.076C106.899 20.8253 106.469 19.808 105.611 19.024C104.771 18.24 103.688 17.848 102.363 17.848C101.019 17.848 99.9174 18.24 99.0587 19.024C98.2187 19.808 97.7987 20.8253 97.7987 22.076C97.7987 23.3453 98.2187 24.3813 99.0587 25.184C99.9174 25.968 101.019 26.36 102.363 26.36ZM122.588 14.88C124.473 14.88 125.985 15.4307 127.124 16.532C128.263 17.6333 128.832 19.2667 128.832 21.432V30H125.332V21.88C125.332 20.5733 125.024 19.5933 124.408 18.94C123.792 18.268 122.915 17.932 121.776 17.932C120.488 17.932 119.471 18.324 118.724 19.108C117.977 19.8733 117.604 20.984 117.604 22.44V30H114.104V15.048H117.436V16.98C118.015 16.2893 118.743 15.7667 119.62 15.412C120.497 15.0573 121.487 14.88 122.588 14.88ZM146.625 22.608C146.625 22.8507 146.606 23.196 146.569 23.644H134.837C135.042 24.7453 135.574 25.6227 136.433 26.276C137.31 26.9107 138.393 27.228 139.681 27.228C141.323 27.228 142.677 26.6867 143.741 25.604L145.617 27.76C144.945 28.5627 144.095 29.1693 143.069 29.58C142.042 29.9907 140.885 30.196 139.597 30.196C137.954 30.196 136.507 29.8693 135.257 29.216C134.006 28.5627 133.035 27.6573 132.345 26.5C131.673 25.324 131.337 23.9987 131.337 22.524C131.337 21.068 131.663 19.7613 132.317 18.604C132.989 17.428 133.913 16.5133 135.089 15.86C136.265 15.2067 137.59 14.88 139.065 14.88C140.521 14.88 141.818 15.2067 142.957 15.86C144.114 16.4947 145.01 17.4 145.645 18.576C146.298 19.7333 146.625 21.0773 146.625 22.608ZM139.065 17.68C137.945 17.68 136.993 18.016 136.209 18.688C135.443 19.3413 134.977 20.2187 134.809 21.32H143.293C143.143 20.2373 142.686 19.36 141.921 18.688C141.155 18.016 140.203 17.68 139.065 17.68ZM158.135 29.188C157.724 29.524 157.22 29.776 156.623 29.944C156.044 30.112 155.428 30.196 154.775 30.196C153.132 30.196 151.863 29.7667 150.967 28.908C150.071 28.0493 149.623 26.7987 149.623 25.156V17.96H147.159V15.16H149.623V11.744H153.123V15.16H157.127V17.96H153.123V25.072C153.123 25.8 153.3 26.36 153.655 26.752C154.009 27.1253 154.523 27.312 155.195 27.312C155.979 27.312 156.632 27.1067 157.155 26.696L158.135 29.188ZM172.858 30L167.538 22.552L162.274 30H158.13L165.41 20.004L158.522 10.4H162.638L167.65 17.372L172.606 10.4H176.554L169.694 19.864L177.058 30H172.858Z" fill="#292930"/>
<rect width="40" height="40" rx="11.4286" fill="#0048F8"/>
<circle opacity="0.5" cx="12.8572" cy="12.8571" r="5.71429" fill="white"/>
<circle cx="12.8571" cy="27.1428" r="5.71429" fill="#FFDC60"/>
<circle cx="27.1428" cy="12.8571" r="5.71429" fill="white"/>
<circle opacity="0.5" cx="27.1428" cy="27.1428" r="5.71429" fill="white"/>
</svg>
