<svg width="150" height="40" viewBox="0 0 150 40" fill="none" xmlns="http://www.w3.org/2000/svg">
<path d="M53.772 10.4H69.032V13.396H57.356V18.212H63.152C65.504 18.212 67.2867 18.7067 68.5 19.696C69.732 20.6667 70.348 22.076 70.348 23.924C70.348 25.8653 69.676 27.368 68.332 28.432C66.988 29.4773 65.0747 30 62.592 30H53.772V10.4ZM62.396 27.2C63.796 27.2 64.86 26.9293 65.588 26.388C66.316 25.8467 66.68 25.0627 66.68 24.036C66.68 22.02 65.252 21.012 62.396 21.012H57.356V27.2H62.396ZM86.8584 15.048L79.8584 31.204C79.205 32.828 78.4117 33.9667 77.4784 34.62C76.545 35.292 75.4157 35.628 74.0904 35.628C73.3437 35.628 72.6064 35.5067 71.8784 35.264C71.1504 35.0213 70.553 34.6853 70.0864 34.256L71.4864 31.68C71.8224 31.9973 72.2144 32.2493 72.6624 32.436C73.129 32.6227 73.5957 32.716 74.0624 32.716C74.6784 32.716 75.1824 32.5573 75.5744 32.24C75.985 31.9227 76.3584 31.3907 76.6944 30.644L76.9464 30.056L70.4224 15.048H74.0624L78.7664 26.108L83.4984 15.048H86.8584ZM94.8432 30.196C93.2939 30.196 91.9032 29.8693 90.6712 29.216C89.4392 28.5627 88.4779 27.6573 87.7872 26.5C87.0965 25.324 86.7512 23.9987 86.7512 22.524C86.7512 21.0493 87.0965 19.7333 87.7872 18.576C88.4779 17.4187 89.4299 16.5133 90.6432 15.86C91.8752 15.2067 93.2752 14.88 94.8432 14.88C96.3179 14.88 97.6059 15.1787 98.7072 15.776C99.8272 16.3733 100.667 17.232 101.227 18.352L98.5392 19.92C98.1099 19.2293 97.5685 18.716 96.9152 18.38C96.2805 18.0253 95.5805 17.848 94.8152 17.848C93.5085 17.848 92.4259 18.2773 91.5672 19.136C90.7085 19.976 90.2792 21.1053 90.2792 22.524C90.2792 23.9427 90.6992 25.0813 91.5392 25.94C92.3979 26.78 93.4899 27.2 94.8152 27.2C95.5805 27.2 96.2805 27.032 96.9152 26.696C97.5685 26.3413 98.1099 25.8187 98.5392 25.128L101.227 26.696C100.649 27.816 99.7992 28.684 98.6792 29.3C97.5779 29.8973 96.2992 30.196 94.8432 30.196ZM115.176 18.016H109.94V30H106.44V18.016H101.176V15.048H115.176V18.016ZM130.219 22.608C130.219 22.8507 130.2 23.196 130.163 23.644H118.431C118.636 24.7453 119.168 25.6227 120.027 26.276C120.904 26.9107 121.987 27.228 123.275 27.228C124.917 27.228 126.271 26.6867 127.335 25.604L129.211 27.76C128.539 28.5627 127.689 29.1693 126.663 29.58C125.636 29.9907 124.479 30.196 123.191 30.196C121.548 30.196 120.101 29.8693 118.851 29.216C117.6 28.5627 116.629 27.6573 115.939 26.5C115.267 25.324 114.931 23.9987 114.931 22.524C114.931 21.068 115.257 19.7613 115.911 18.604C116.583 17.428 117.507 16.5133 118.683 15.86C119.859 15.2067 121.184 14.88 122.659 14.88C124.115 14.88 125.412 15.2067 126.551 15.86C127.708 16.4947 128.604 17.4 129.239 18.576C129.892 19.7333 130.219 21.0773 130.219 22.608ZM122.659 17.68C121.539 17.68 120.587 18.016 119.803 18.688C119.037 19.3413 118.571 20.2187 118.403 21.32H126.887C126.737 20.2373 126.28 19.36 125.515 18.688C124.749 18.016 123.797 17.68 122.659 17.68ZM141.495 14.88C142.951 14.88 144.248 15.1973 145.387 15.832C146.544 16.4667 147.449 17.3627 148.103 18.52C148.756 19.6773 149.083 21.012 149.083 22.524C149.083 24.036 148.756 25.38 148.103 26.556C147.449 27.7133 146.544 28.6093 145.387 29.244C144.248 29.8787 142.951 30.196 141.495 30.196C139.479 30.196 137.883 29.524 136.707 28.18V35.432H133.207V15.048H136.539V17.008C137.117 16.2987 137.827 15.7667 138.667 15.412C139.525 15.0573 140.468 14.88 141.495 14.88ZM141.103 27.2C142.391 27.2 143.445 26.7707 144.267 25.912C145.107 25.0533 145.527 23.924 145.527 22.524C145.527 21.124 145.107 19.9947 144.267 19.136C143.445 18.2773 142.391 17.848 141.103 17.848C140.263 17.848 139.507 18.044 138.835 18.436C138.163 18.8093 137.631 19.3507 137.239 20.06C136.847 20.7693 136.651 21.5907 136.651 22.524C136.651 23.4573 136.847 24.2787 137.239 24.988C137.631 25.6973 138.163 26.248 138.835 26.64C139.507 27.0133 140.263 27.2 141.103 27.2Z" fill="#292930"/>
<rect width="40" height="40" rx="11.4286" fill="#0048F8"/>
<circle opacity="0.5" cx="12.8571" cy="12.8571" r="5.71429" fill="white"/>
<circle cx="12.8571" cy="27.1428" r="5.71429" fill="#FFDC60"/>
<circle cx="27.1428" cy="12.8571" r="5.71429" fill="white"/>
<circle opacity="0.5" cx="27.1428" cy="27.1428" r="5.71429" fill="white"/>
</svg>
