<svg width="157" height="40" viewBox="0 0 157 40" fill="none" xmlns="http://www.w3.org/2000/svg">
<path d="M67.56 27L67.537 17.34L62.799 25.298H61.12L56.405 17.547V27H52.909V10.9H55.991L62.017 20.905L67.951 10.9H71.01L71.056 27H67.56ZM78.9238 14.442C80.8405 14.442 82.3125 14.902 83.3398 15.822C84.3671 16.7267 84.8808 18.099 84.8808 19.939V27H81.5228V25.459C80.8481 26.609 79.5908 27.184 77.7508 27.184C76.8001 27.184 75.9721 27.023 75.2668 26.701C74.5768 26.379 74.0478 25.9343 73.6798 25.367C73.3118 24.7997 73.1278 24.1557 73.1278 23.435C73.1278 22.285 73.5571 21.3803 74.4158 20.721C75.2898 20.0617 76.6315 19.732 78.4408 19.732H81.2928C81.2928 18.95 81.0551 18.352 80.5798 17.938C80.1045 17.5087 79.3915 17.294 78.4408 17.294C77.7815 17.294 77.1298 17.4013 76.4858 17.616C75.8571 17.8153 75.3205 18.0913 74.8758 18.444L73.5878 15.937C74.2625 15.4617 75.0675 15.0937 76.0028 14.833C76.9535 14.5723 77.9271 14.442 78.9238 14.442ZM78.6478 24.769C79.2611 24.769 79.8055 24.631 80.2808 24.355C80.7561 24.0637 81.0935 23.642 81.2928 23.09V21.825H78.8318C77.3598 21.825 76.6238 22.308 76.6238 23.274C76.6238 23.734 76.8001 24.102 77.1528 24.378C77.5208 24.6387 78.0191 24.769 78.6478 24.769ZM100.338 14.626V24.93C100.338 27.1993 99.7475 28.886 98.5669 29.99C97.3862 31.094 95.6612 31.646 93.3919 31.646C92.1959 31.646 91.0612 31.5003 89.9879 31.209C88.9145 30.9177 88.0252 30.496 87.3199 29.944L88.7459 27.368C89.2672 27.7973 89.9265 28.1347 90.7239 28.38C91.5212 28.6407 92.3185 28.771 93.1159 28.771C94.3579 28.771 95.2702 28.4873 95.8529 27.92C96.4509 27.368 96.7499 26.5247 96.7499 25.39V24.861C95.8145 25.8883 94.5112 26.402 92.8399 26.402C91.7052 26.402 90.6625 26.1567 89.7119 25.666C88.7765 25.16 88.0329 24.4547 87.4809 23.55C86.9289 22.6453 86.6529 21.6027 86.6529 20.422C86.6529 19.2413 86.9289 18.1987 87.4809 17.294C88.0329 16.3893 88.7765 15.6917 89.7119 15.201C90.6625 14.695 91.7052 14.442 92.8399 14.442C94.6339 14.442 95.9985 15.0323 96.9339 16.213V14.626H100.338ZM93.5529 23.458C94.5035 23.458 95.2779 23.182 95.8759 22.63C96.4892 22.0627 96.7959 21.3267 96.7959 20.422C96.7959 19.5173 96.4892 18.789 95.8759 18.237C95.2779 17.6697 94.5035 17.386 93.5529 17.386C92.6022 17.386 91.8202 17.6697 91.2069 18.237C90.5935 18.789 90.2869 19.5173 90.2869 20.422C90.2869 21.3267 90.5935 22.0627 91.2069 22.63C91.8202 23.182 92.6022 23.458 93.5529 23.458ZM110.508 14.442C112.042 14.442 113.276 14.902 114.211 15.822C115.162 16.742 115.637 18.1067 115.637 19.916V27H112.049V20.468C112.049 19.4867 111.835 18.7583 111.405 18.283C110.976 17.7923 110.355 17.547 109.542 17.547C108.638 17.547 107.917 17.8307 107.38 18.398C106.844 18.95 106.575 19.778 106.575 20.882V27H102.987V14.626H106.414V16.075C106.89 15.5537 107.48 15.155 108.185 14.879C108.891 14.5877 109.665 14.442 110.508 14.442ZM130.455 20.859C130.455 20.905 130.432 21.227 130.386 21.825H121.025C121.194 22.5917 121.593 23.1973 122.221 23.642C122.85 24.0867 123.632 24.309 124.567 24.309C125.211 24.309 125.779 24.217 126.269 24.033C126.775 23.8337 127.243 23.527 127.672 23.113L129.581 25.183C128.416 26.517 126.714 27.184 124.475 27.184C123.08 27.184 121.846 26.9157 120.772 26.379C119.699 25.827 118.871 25.068 118.288 24.102C117.706 23.136 117.414 22.0397 117.414 20.813C117.414 19.6017 117.698 18.513 118.265 17.547C118.848 16.5657 119.638 15.8067 120.634 15.27C121.646 14.718 122.773 14.442 124.015 14.442C125.227 14.442 126.323 14.7027 127.304 15.224C128.286 15.7453 129.052 16.4967 129.604 17.478C130.172 18.444 130.455 19.571 130.455 20.859ZM124.038 17.156C123.226 17.156 122.543 17.386 121.991 17.846C121.439 18.306 121.102 18.9347 120.979 19.732H127.074C126.952 18.95 126.614 18.329 126.062 17.869C125.51 17.3937 124.836 17.156 124.038 17.156ZM140.135 26.402C139.783 26.6627 139.346 26.862 138.824 27C138.318 27.1227 137.782 27.184 137.214 27.184C135.742 27.184 134.6 26.8083 133.787 26.057C132.99 25.3057 132.591 24.2017 132.591 22.745V17.662H130.682V14.902H132.591V11.889H136.179V14.902H139.261V17.662H136.179V22.699C136.179 23.2203 136.31 23.6267 136.57 23.918C136.846 24.194 137.23 24.332 137.72 24.332C138.288 24.332 138.771 24.1787 139.169 23.872L140.135 26.402ZM151.855 27L147.968 21.411L144.15 27H139.872L145.829 18.812L140.171 10.9H144.403L148.106 16.121L151.74 10.9H155.765L150.153 18.674L156.156 27H151.855Z" fill="#292930"/>
<rect width="40" height="40" rx="11.4286" fill="white"/>
<circle cx="12.8572" cy="12.8574" r="5.71429" fill="#004AFF"/>
<circle cx="12.8572" cy="27.143" r="5.71429" fill="#FFFA32"/>
<circle cx="27.1429" cy="12.8574" r="5.71429" fill="#96DDFF"/>
<circle cx="27.1429" cy="27.143" r="5.71429" fill="#004AFF"/>
</svg>
